# xmcd CD database file
#
# Track frame offsets:
#	150
#	18318
#	38549
#	52879
#	69455
#	92164
#	119481
#	141118
#	159538
#	172349
#	192775
#
# Disc length: 2952 seconds
#
# Revision: 1
# Processed by: cddbd v1.5.2PL0 Copyright (c) Steve Scherf et al.
# Submitted via: jetAudio 7
#
DISCID=910b860b
DTITLE=Faye Patton - Going Solo
DYEAR=1900
DGENRE=R&B
TTITLE0=Your Very Own Smile
TTITLE1=Going Solo
TTITLE2=I've Lost My Baby Now
TTITLE3=As Much As I Do
TTITLE4=A Foolish Fool
TTITLE5=I Know The Prisoner
TTITLE6=Colour Of Me
TTITLE7=Glory Glory
TTITLE8=Darling I Do
TTITLE9=Lucy Lou
TTITLE10=Season For Everything
EXTD=
EXTT0=
EXTT1=
EXTT2=
EXTT3=
EXTT4=
EXTT5=
EXTT6=
EXTT7=
EXTT8=
EXTT9=
EXTT10=
PLAYORDER=
